<svg xmlns="http://www.w3.org/2000/svg" xmlns:xlink="http://www.w3.org/1999/xlink" width="500" zoomAndPan="magnify" viewBox="68 68 239 239" height="500" preserveAspectRatio="xMidYMid meet" version="1.0"><defs><clipPath id="7ab98e0204"><rect x="0" width="239" y="0" height="239"/></clipPath><filter id="shieldGlow" x="-50%" y="-50%" width="200%" height="200%"><feGaussianBlur stdDeviation="2" result="blur"/><feMerge><feMergeNode in="blur"/><feMergeNode in="blur"/><feMergeNode in="SourceGraphic"/></feMerge></filter></defs><g transform="matrix(1, 0, 0, 1, 68, 68)"><g clip-path="url(#7ab98e0204)"><path fill="#4ade80" filter="url(#shieldGlow)" d="M 201.152344 62.886719 C 170.472656 52.648438 132.980469 33.257812 124.953125 25.070312 C 124.261719 24.367188 123.460938 23.820312 122.550781 23.4375 C 121.644531 23.050781 120.695312 22.855469 119.707031 22.851562 C 118.730469 22.878906 117.785156 23.074219 116.878906 23.445312 C 115.96875 23.8125 115.15625 24.328125 114.433594 24.992188 C 103.28125 34.164062 91.277344 42.042969 78.425781 48.632812 C 65.578125 55.222656 52.171875 60.371094 38.214844 64.078125 C 37.4375 64.296875 36.710938 64.632812 36.042969 65.089844 C 35.375 65.546875 34.796875 66.097656 34.308594 66.742188 C 33.820312 67.386719 33.445312 68.09375 33.1875 68.859375 C 32.929688 69.628906 32.800781 70.414062 32.800781 71.222656 C 32.800781 152.828125 45.480469 195.285156 117.507812 215.863281 C 118.867188 216.253906 120.230469 216.253906 121.589844 215.863281 C 194.015625 195.15625 206.238281 154.117188 206.238281 69.9375 C 206.238281 69.15625 206.117188 68.394531 205.875 67.652344 C 205.636719 66.910156 205.289062 66.222656 204.832031 65.589844 C 204.375 64.960938 203.832031 64.410156 203.203125 63.949219 C 202.574219 63.488281 201.890625 63.132812 201.152344 62.886719 Z M 119.5 200.972656 C 60.023438 183.359375 48.128906 152.402344 47.640625 76.777344 C 60.671875 72.882812 73.246094 67.851562 85.367188 61.691406 C 97.492188 55.527344 108.964844 48.332031 119.789062 40.097656 C 142.234375 54.675781 166.089844 66.390625 191.347656 75.238281 C 190.871094 152.023438 179.097656 183.328125 119.5 200.972656 Z M 119.5 200.972656 " fill-opacity="1" fill-rule="nonzero"/><path stroke-linecap="round" transform="matrix(4.510329, 0, 0, 4.510329, 65.126841, 65.126837)" fill="none" stroke-linejoin="round" d="M 11.999825 16.999634 C 11.869049 16.999634 11.738272 16.993572 11.608362 16.980581 C 11.477586 16.96759 11.348542 16.948536 11.219498 16.92342 C 11.09132 16.897438 10.964008 16.865394 10.838428 16.828153 C 10.713714 16.790046 10.589867 16.745876 10.469483 16.695645 C 10.348234 16.645413 10.229583 16.589118 10.114396 16.527627 C 9.999209 16.466137 9.88662 16.398583 9.777495 16.325834 C 9.668371 16.253084 9.563577 16.175138 9.462247 16.091995 C 9.360917 16.008853 9.263917 15.92138 9.171248 15.828711 C 9.078579 15.736042 8.991106 15.639042 8.907963 15.537712 C 8.824821 15.436382 8.746875 15.331588 8.674125 15.222463 C 8.601375 15.113339 8.533822 15.00075 8.472331 14.885563 C 8.410841 14.770376 8.354546 14.651725 8.304314 14.530475 C 8.254082 14.410092 8.209913 14.286244 8.171806 14.161531 C 8.134565 14.035951 8.10252 13.908639 8.076538 13.780461 C 8.051422 13.652283 8.032369 13.522373 8.019378 13.392463 C 8.006387 13.261686 8.000325 13.13091 8.000325 13.000134 L 8.000325 7.000017 C 8.000325 6.869241 8.006387 6.738465 8.019378 6.607689 C 8.032369 6.477779 8.051422 6.347868 8.076538 6.21969 C 8.10252 6.091512 8.134565 5.964201 8.172672 5.838621 C 8.209913 5.713907 8.254082 5.590059 8.304314 5.469676 C 8.354546 5.348426 8.410841 5.229775 8.472331 5.114588 C 8.533822 4.998535 8.601375 4.886812 8.674125 4.777688 C 8.746875 4.668563 8.824821 4.563769 8.907963 4.462439 C 8.991106 4.361109 9.078579 4.26411 9.171248 4.171441 C 9.263917 4.078771 9.360917 3.991298 9.462247 3.908156 C 9.563577 3.825013 9.668371 3.747067 9.777495 3.674318 C 9.88662 3.601568 9.999209 3.534015 10.114396 3.472524 C 10.229583 3.410167 10.348234 3.354739 10.469483 3.304507 C 10.589867 3.254275 10.713714 3.210105 10.839294 3.171998 C 10.964008 3.133891 11.09132 3.102713 11.219498 3.076731 C 11.348542 3.051615 11.477586 3.031696 11.608362 3.019571 C 11.738272 3.00658 11.869049 2.999651 11.999825 2.999651 C 12.130601 2.999651 12.261377 3.00658 12.392153 3.019571 C 12.522064 3.031696 12.651974 3.051615 12.780152 3.076731 C 12.909196 3.102713 13.035642 3.133891 13.161222 3.171998 C 13.286801 3.210105 13.409783 3.254275 13.531032 3.304507 C 13.651416 3.354739 13.770067 3.410167 13.885254 3.472524 C 14.001307 3.534015 14.11303 3.601568 14.222154 3.674318 C 14.331279 3.747067 14.436073 3.825013 14.537403 3.908156 C 14.638733 3.991298 14.735732 4.078771 14.828402 4.171441 C 14.921071 4.26411 15.008544 4.361109 15.091686 4.462439 C 15.174829 4.563769 15.252775 4.668563 15.325525 4.777688 C 15.398274 4.886812 15.465827 4.998535 15.527318 5.114588 C 15.589675 5.229775 15.645103 5.348426 15.695335 5.469676 C 15.745567 5.590059 15.789737 5.713907 15.827844 5.838621 C 15.865951 5.964201 15.897995 6.091512 15.923111 6.21969 C 15.949093 6.347868 15.968147 6.477779 15.981138 6.607689 C 15.993263 6.738465 16.000191 6.869241 16.000191 7.000017 L 16.000191 13.000134 C 16.000191 13.13091 15.993263 13.261686 15.981138 13.392463 C 15.968147 13.522373 15.949093 13.652283 15.923111 13.780461 C 15.897995 13.908639 15.865951 14.035951 15.827844 14.161531 C 15.789737 14.286244 15.745567 14.410092 15.695335 14.530475 C 15.645103 14.651725 15.589675 14.770376 15.527318 14.885563 C 15.465827 15.00075 15.398274 15.113339 15.325525 15.222463 C 15.252775 15.331588 15.174829 15.436382 15.091686 15.537712 C 15.008544 15.639042 14.921071 15.736042 14.828402 15.828711 C 14.735732 15.92138 14.638733 16.008853 14.537403 16.091995 C 14.436073 16.175138 14.331279 16.253084 14.222154 16.325834 C 14.11303 16.398583 14.001307 16.466137 13.885254 16.527627 C 13.770067 16.589118 13.651416 16.645413 13.531032 16.695645 C 13.409783 16.745876 13.286801 16.790046 13.161222 16.828153 C 13.035642 16.865394 12.909196 16.897438 12.780152 16.92342 C 12.651974 16.948536 12.522064 16.96759 12.392153 16.980581 C 12.261377 16.993572 12.130601 16.999634 11.999825 16.999634 Z M 11.999825 16.999634 L 11.999825 21.000001 M 14.999883 21.000001 L 8.999767 21.000001 " stroke="#000000" stroke-width="2" stroke-opacity="1" stroke-miterlimit="4"/></g></g></svg>